<svg width="85" height="85" viewBox="0 0 85 85" fill="none" xmlns="http://www.w3.org/2000/svg">
<g clip-path="url(#clip0_4_64)">
<path d="M53.125 24.7917H56.6667C56.6667 17 50.2917 10.625 42.5 10.625V14.1667C48.5208 14.1667 53.125 18.7708 53.125 24.7917Z" fill="white"/>
<path d="M31.875 70.8333H0V74.375H31.875C34 74.375 35.4167 75.7917 35.4167 77.9167C35.4167 80.0417 34 81.4583 31.875 81.4583C29.75 81.4583 28.3333 80.0417 28.3333 77.9167H24.7917C24.7917 81.8125 27.9792 85 31.875 85C35.7708 85 38.9583 81.8125 38.9583 77.9167C38.9583 74.0208 35.7708 70.8333 31.875 70.8333Z" fill="white"/>
<path d="M49.5833 63.75H0V67.2917H49.5833C51.7083 67.2917 53.125 68.7083 53.125 70.8333C53.125 72.9583 51.7083 74.375 49.5833 74.375C47.4583 74.375 46.0417 72.9583 46.0417 70.8333H42.5C42.5 74.7292 45.6875 77.9167 49.5833 77.9167C53.4792 77.9167 56.6667 74.7292 56.6667 70.8333C56.6667 66.9375 53.4792 63.75 49.5833 63.75Z" fill="white"/>
<path d="M31.875 56.6667H0V60.2083H31.875C35.7708 60.2083 38.9583 57.0208 38.9583 53.125C38.9583 49.2292 35.7708 46.0417 31.875 46.0417C27.9792 46.0417 24.7917 49.2292 24.7917 53.125H28.3333C28.3333 51 29.75 49.5833 31.875 49.5833C34 49.5833 35.4167 51 35.4167 53.125C35.4167 55.25 34 56.6667 31.875 56.6667Z" fill="white"/>
<path d="M67.2917 17.7083C66.9375 17.7083 66.5833 17.7083 66.2292 17.7083C63.0417 7.4375 53.8333 0 42.5 0C34 0 26.5625 4.25 21.9583 10.625C21.9583 10.625 21.6042 10.625 21.25 10.625C9.5625 10.625 0 20.1875 0 31.875C0 43.5625 9.5625 53.125 21.25 53.125C21.25 50.2917 22.3125 47.8125 24.0833 46.0417H21.25C13.4583 46.0417 7.08333 39.6667 7.08333 31.875C7.08333 30.8125 7.08333 30.1042 7.4375 29.0417C7.4375 28.6875 7.4375 28.3333 7.79167 28.3333C7.79167 27.625 8.14583 27.2708 8.14583 26.5625C8.14583 26.2083 8.5 25.8542 8.5 25.5C8.85417 25.1458 8.85417 24.7917 9.20833 24.4375C9.5625 24.0833 9.5625 23.7292 9.91667 23.375C10.2708 23.0208 10.625 22.6667 10.9792 22.3125C10.9792 21.9583 11.3333 21.6042 11.6875 21.25C12.0417 21.25 12.3958 20.8958 12.75 20.5417C13.1042 20.1875 13.4583 19.8333 13.8125 19.8333C14.1667 19.8333 14.5208 19.4792 14.5208 19.4792C14.875 19.125 15.5833 19.125 15.9375 18.7708C16.2917 18.7708 16.2917 18.7708 16.6458 18.4167C18.4167 18.0625 19.8333 17.7083 21.25 17.7083C23.0208 17.7083 24.4375 18.0625 25.8542 18.4167C28.3333 12.3958 33.6458 7.79167 40.375 7.08333H40.7292C41.4375 7.08333 41.7917 7.08333 42.5 7.08333C46.3958 7.08333 49.9375 8.5 52.7708 10.625C55.9583 12.75 58.0833 15.9375 59.1458 19.8333C59.5 20.5417 59.5 21.25 59.8542 21.9583C60.2083 23.0208 60.2083 23.7292 60.2083 24.7917H67.2917C73.3125 24.7917 77.9167 29.3958 77.9167 35.4167C77.9167 41.4375 73.3125 46.0417 67.2917 46.0417H39.6667C41.4375 47.8125 42.5 50.2917 42.5 53.125H67.2917C77.2083 53.125 85 45.3333 85 35.4167C85 25.5 77.2083 17.7083 67.2917 17.7083Z" fill="white"/>
</g>
<defs>
<clipPath id="clip0_4_64">
<rect width="85" height="85" fill="white"/>
</clipPath>
</defs>
</svg>
